<?xml version="1.0" encoding="utf-8"?>
<!-- Generator: Adobe Illustrator 16.0.0, SVG Export Plug-In . SVG Version: 6.00 Build 0)  -->
<!DOCTYPE svg PUBLIC "-//W3C//DTD SVG 1.1//EN" "http://www.w3.org/Graphics/SVG/1.1/DTD/svg11.dtd">
<svg version="1.1" id="Layer_1" xmlns="http://www.w3.org/2000/svg" xmlns:xlink="http://www.w3.org/1999/xlink" x="0px" y="0px"
	 width="388.791px" height="129.867px" viewBox="0 0 388.791 129.867" enable-background="new 0 0 388.791 129.867"
	 xml:space="preserve">
<g>
	<defs>
		<rect id="SVGID_1_" x="-21.604" y="-79.067" width="432" height="288"/>
	</defs>
	<clipPath id="SVGID_2_">
		<use xlink:href="#SVGID_1_"  overflow="visible"/>
	</clipPath>
	<path clip-path="url(#SVGID_2_)" fill="#FFFFFF" d="M32.387,0.003H0l8.472,117.104h71.586l3.439-30.377l-53.701,2.187L32.387,0.003
		z M29.73,96.957c0,0.866-0.703,1.567-1.57,1.567c-0.866,0-1.569-0.701-1.569-1.567c0-0.867,0.703-1.569,1.569-1.569
		C29.027,95.387,29.73,96.089,29.73,96.957 M25.174,72.228c-0.24-0.921-0.983-1.741-1.77-2.609
		c-1.114-1.229-2.376-2.624-2.213-4.558c0.153-1.82,1.503-3.003,2.692-4.05c0.978-0.858,1.901-1.669,2.041-2.668
		c0.162-1.155-0.715-2.185-1.73-3.376c-1.012-1.189-2.159-2.534-2.314-4.266c-0.186-2.073,1.097-3.765,2.229-5.258
		c1.08-1.424,2.013-2.654,1.734-3.963c-0.169-0.797-0.8-1.533-1.467-2.312c-0.952-1.11-2.031-2.369-1.878-4.092
		c0.138-1.555,1.221-2.587,2.176-3.497c0.707-0.674,1.374-1.309,1.579-2.048c0.349-1.251-0.612-2.602-1.629-4.033
		c-1.249-1.756-2.665-3.747-1.677-5.973c0.477-1.076,1.397-1.763,2.208-2.371c0.768-0.573,1.431-1.069,1.594-1.736
		c0.215-0.88-0.431-1.676-1.521-2.881c-0.607-0.672-1.235-1.365-1.673-2.178c-0.762-1.411-0.762-3.209,0-4.809
		c0.753-1.58,2.128-2.699,3.678-2.991l0.371,1.964c-0.926,0.175-1.764,0.88-2.243,1.887c-0.489,1.027-0.506,2.148-0.046,2.999
		c0.324,0.6,0.845,1.177,1.397,1.786c1.154,1.278,2.462,2.725,1.979,4.698c-0.333,1.364-1.398,2.161-2.338,2.863
		c-0.675,0.505-1.312,0.982-1.578,1.58c-0.49,1.105,0.232,2.25,1.479,4.003c1.186,1.669,2.53,3.559,1.926,5.729
		c-0.354,1.269-1.296,2.166-2.126,2.958c-0.801,0.764-1.492,1.422-1.564,2.227c-0.078,0.884,0.609,1.686,1.405,2.613
		c0.763,0.892,1.629,1.903,1.904,3.198c0.47,2.205-0.894,4.001-2.096,5.587c-1.002,1.321-1.948,2.569-1.831,3.872
		c0.098,1.097,0.947,2.092,1.844,3.147c1.161,1.361,2.475,2.904,2.188,4.95c-0.242,1.736-1.548,2.882-2.701,3.894
		c-1.037,0.911-1.934,1.698-2.019,2.715c-0.091,1.067,0.74,1.984,1.703,3.047c0.871,0.962,1.859,2.053,2.223,3.448
		c0.644,2.476-0.847,4.674-2.163,6.614c-1.201,1.771-2.336,3.445-1.774,5.019c0.237,0.666,0.778,1.278,1.351,1.927
		c0.891,1.009,1.901,2.152,1.874,3.754l-2-0.035c0.014-0.824-0.628-1.552-1.373-2.396c-0.642-0.726-1.37-1.549-1.736-2.577
		c-0.903-2.529,0.641-4.806,2.003-6.813C24.474,75.473,25.59,73.827,25.174,72.228 M8.376,80.127l1.574-1.232l3.142,4.012
		L12.513,69.85l-4.946-6.313l1.574-1.232l3.22,4.109L11.82,54.229l-0.01,0.006l-5.172-6.602l1.574-1.233l3.456,4.412l-0.614-13.826
		l-0.015,0.012l-5.173-6.603l1.574-1.233l3.463,4.421L10.36,21.354l-4.934-6.298L7,13.82l3.208,4.095L9.593,4.065l1.998-0.087
		l0.276,6.217l2.96-4.38l1.657,1.119l-4.468,6.613l0.488,10.997l3.262-4.829l1.658,1.119l-4.697,6.95l-0.082-0.055l0.525,11.82
		l3.036-4.493l1.657,1.119l-4.544,6.726l0.616,13.895l3.043-4.503l1.657,1.119l-4.551,6.736l0.571,12.863l3.252-4.813l1.657,1.118
		l-4.696,6.951l-0.07-0.048l0.566,12.761l-1.998,0.088l-0.121-2.725L8.376,80.127z M28.29,112.944c-4.241,0-8.48-1.759-11.421-4.823
		c-3.401-3.544-4.986-8.751-4.137-13.589l1.97,0.346c-0.741,4.222,0.642,8.766,3.61,11.858c2.968,3.092,7.449,4.667,11.7,4.095
		l0.265,1.982C29.618,112.901,28.954,112.944,28.29,112.944 M65.088,98.92c0.973-0.558,2.284-0.584,3.671-0.334
		c-0.785-0.938-1.347-1.94-1.428-2.952c-0.069-0.854,0.16-2.102,1.642-3.196c1.504-1.109,2.729-0.938,3.492-0.599
		c3.344,1.486,4.265,9.195,4.416,10.726l-0.032,0.022l0.03,0.024c-0.274,1.513-1.819,9.122-5.271,10.332
		c-0.276,0.097-0.605,0.168-0.977,0.168c-0.695,0-1.539-0.249-2.456-1.048c-1.388-1.212-1.515-2.474-1.377-3.319
		c0.165-1.013,0.819-1.977,1.693-2.854c-0.255,0.02-0.508,0.033-0.755,0.033c-0.988,0-1.896-0.175-2.615-0.617
		c-0.731-0.449-1.603-1.37-1.611-3.212C63.501,100.225,64.363,99.336,65.088,98.92 M51.21,93.029l1,0.034
		c2.045,0.069,3.914,1.696,4.166,3.627c0.168,1.289-0.619,2.516-1.661,3.385c1.086,0.685,1.904,1.755,1.967,3.065
		c0.06,1.289-0.659,2.469-1.679,3.291c1.191,0.762,2.051,1.933,1.95,3.237c-0.158,2.009-1.716,3.318-3.909,3.318
		c-0.084,0-0.169-0.002-0.254-0.006l-0.999-0.045l0.09-1.998l0.999,0.044c1.214,0.065,2.002-0.493,2.079-1.47
		c0.061-0.784-1.297-1.815-2.594-1.97l-0.064-1.978c1.247-0.23,2.427-1.385,2.383-2.33c-0.044-0.92-1.202-1.843-2.479-1.975
		l-0.151-1.963c1.171-0.307,2.439-1.58,2.338-2.349c-0.126-0.969-1.178-1.851-2.251-1.888l-0.999-0.034L51.21,93.029z
		 M39.254,93.604l0.999,0.034c2.008,0.067,3.844,1.665,4.092,3.561c0.164,1.258-0.595,2.454-1.607,3.307
		c1.054,0.673,1.845,1.718,1.905,2.996c0.059,1.256-0.635,2.405-1.623,3.212c1.156,0.749,1.987,1.893,1.888,3.165
		c-0.154,1.976-1.685,3.263-3.84,3.263c-0.082,0-0.165-0.002-0.249-0.006l-0.999-0.045l0.089-1.998l0.999,0.045
		c0.562,0.022,1.9-0.062,2.006-1.414c0.058-0.742-1.281-1.753-2.512-1.899l-0.064-1.977c1.186-0.219,2.35-1.355,2.307-2.252
		c-0.041-0.888-1.163-1.78-2.399-1.906l-0.151-1.963c1.135-0.297,2.363-1.526,2.266-2.269c-0.122-0.935-1.139-1.786-2.175-1.821
		l-1-0.033L39.254,93.604z M31.382,104.794l0.263,1.982c-0.52,0.069-1.043,0.103-1.564,0.103c-3.14,0-6.229-1.231-8.496-3.436
		c-2.643-2.571-3.993-6.296-3.609-9.965l1.989,0.209c-0.315,3.018,0.839,6.207,3.014,8.322
		C25.154,104.125,28.369,105.186,31.382,104.794"/>
	<path clip-path="url(#SVGID_2_)" fill="#FFFFFF" d="M74.222,100.543c0.133,0.065,0.264,0.131,0.389,0.194
		c-0.528-3.045-1.59-6.464-2.958-7.071c-0.072-0.031-0.195-0.086-0.382-0.086c-0.247,0-0.607,0.096-1.11,0.467
		c-0.805,0.594-0.863,1.1-0.836,1.426C69.448,97.016,71.897,99.055,74.222,100.543"/>
	<path clip-path="url(#SVGID_2_)" fill="#FFFFFF" d="M66.167,103.602c1.316,0.811,4.396,0.036,6.967-0.959
		c0.127-0.067,0.247-0.13,0.369-0.191c-0.064-0.039-0.123-0.075-0.189-0.116c-2.12-1.028-4.55-1.913-6.122-1.913
		c-0.449,0-0.828,0.071-1.108,0.233c-0.159,0.091-0.579,0.332-0.574,1.429C65.514,103.085,65.887,103.43,66.167,103.602"/>
	<path clip-path="url(#SVGID_2_)" fill="#FFFFFF" d="M68.771,109.067c-0.053,0.324-0.036,0.832,0.718,1.489
		c0.827,0.721,1.284,0.56,1.456,0.501c1.41-0.493,2.743-3.802,3.517-6.789c-0.168,0.07-0.343,0.14-0.526,0.212
		C71.538,105.77,69.017,107.567,68.771,109.067"/>
	<path clip-path="url(#SVGID_2_)" fill="#FFFFFF" d="M101.621,78.042l-5.946-8.313l-4.489,6.173l-4.082,41.086L91.997,117
		l9.635-31.69l11.815,31.689l5.842-0.01l-6.201-41.135l-4.784-6.066L101.621,78.042z M92.21,105.929l-1.974-0.324l0.668-4.077
		l1.974,0.324L92.21,105.929z M93.965,95.432l-1.966-0.369l0.876-4.676l1.965,0.369L93.965,95.432z M95.936,83.832l-1.983-0.26
		l0.593-4.535l1.984,0.26L95.936,83.832z M114.046,104.142l-1.962,0.383l-1.031-5.287l1.963-0.383L114.046,104.142z M111.565,93.241
		l-1.939,0.494l-1.259-4.944l1.939-0.494L111.565,93.241z M109.213,82.484l-1.96,0.4l-0.836-4.1l1.96-0.4L109.213,82.484z"/>
	<polygon clip-path="url(#SVGID_2_)" fill="#FFFFFF" points="94.086,117.004 96.97,117.011 96.969,117.03 101.666,117.021 
		106.363,117.03 106.362,117.011 111.314,117.002 101.824,91.551 	"/>
	<path clip-path="url(#SVGID_2_)" fill="#FFFFFF" d="M117.561,0.004L101.665,38.77L85.579,0.004H58.148l35.596,50.148l-2.167,21.813
		l4.112-5.654l6.03,8.432l6.606-8.157l4.16,5.276l-3.224-21.384l35.708-50.473H117.561z M115.466,18.979
		c3.444,0.511-0.952,7.654-0.952,7.654S111.903,18.449,115.466,18.979 M99.682,50.285l1.993,2.949l1.985-2.858l1.643,1.14
		l-3.651,5.257l-3.627-5.369L99.682,50.285z M94.807,30.725c0.866,0,1.568,0.703,1.568,1.569c0,0.867-0.702,1.569-1.568,1.569
		c-0.867,0-1.569-0.702-1.569-1.569C93.238,31.428,93.94,30.725,94.807,30.725 M90.208,21.636c0.866,0,1.569,0.702,1.569,1.569
		c0,0.866-0.703,1.569-1.569,1.569c-0.867,0-1.569-0.703-1.569-1.569C88.639,22.338,89.341,21.636,90.208,21.636 M85.717,12.547
		c0.867,0,1.57,0.702,1.57,1.569c0,0.866-0.703,1.569-1.57,1.569c-0.866,0-1.569-0.703-1.569-1.569
		C84.148,13.249,84.851,12.547,85.717,12.547 M81.173,3.079c0.866,0,1.569,0.702,1.569,1.569c0,0.866-0.703,1.569-1.569,1.569
		c-0.867,0-1.569-0.703-1.569-1.569C79.604,3.781,80.306,3.079,81.173,3.079 M94.403,45.144l-1.928-0.529l1.633-5.949l-7.444-1.241
		l2.119-7.412l-7.901-1.201l1.926-8.06l-7.584-0.754l2.507-7.91l-7.726-0.448l1.918-7.494l-6.93-0.136l0.039-2l9.455,0.185
		l-1.943,7.59l7.87,0.456l-2.539,8.011l7.411,0.736l-1.954,8.174l7.998,1.216l-2.126,7.442l7.419,1.236L94.403,45.144z
		 M101.652,63.831l-4.217-5.523l1.59-1.213l2.648,3.468l2.645-3.369l1.573,1.234L101.652,63.831z M109.219,39.875
		c0,0-2.427-6.877,0.611-6.52C112.766,33.7,109.219,39.875,109.219,39.875 M113.49,33.87c0,0,2.46-7.52,4.836-5.205
		C120.623,30.903,113.49,33.87,113.49,33.87 M121.214,7.486c3.658,0.543-1.012,8.132-1.012,8.132S117.428,6.923,121.214,7.486
		 M120.091,22.89c0,0,3.493-8.43,6.021-5.558C128.556,20.108,120.091,22.89,120.091,22.89 M126.767,12.627
		c0,0,3.934-8.234,6.307-5.231C135.368,10.297,126.767,12.627,126.767,12.627"/>
	<path clip-path="url(#SVGID_2_)" fill="#FFFFFF" d="M189.798,101.928l15.42,27.934h24.202l-25.295-38.546L189.798,101.928z
		 M219.932,121.95l-1.744,0.979c-0.951-1.693-3.162-2.601-5.024-2.067c-1.867,0.533-3.261,2.471-3.173,4.41l-1.998,0.09
		c-0.13-2.872,1.856-5.634,4.622-6.424C215.375,118.151,218.523,119.443,219.932,121.95 M215.305,114.592l-1.744,0.978
		c-0.951-1.693-3.162-2.601-5.024-2.067c-1.866,0.533-3.26,2.471-3.173,4.41l-1.998,0.09c-0.129-2.872,1.858-5.634,4.622-6.424
		C210.748,110.792,213.896,112.083,215.305,114.592 M210.328,105.696l-1.537,1.279c-1.213-1.456-3.458-2.036-5.223-1.352
		c-1.766,0.687-3.028,2.632-2.938,4.524l-1.998,0.096c-0.133-2.757,1.639-5.483,4.211-6.483
		C205.415,102.76,208.563,103.574,210.328,105.696"/>
	<path clip-path="url(#SVGID_2_)" fill="#FFFFFF" d="M183.65,60.116l40.699-60.112H196L175.083,45.5V0.003h-23.443l-0.445,10.598
		l15.636,8.63l-16.467,11.148l-0.055,1.293l16.522,9.119l-17.4,11.779l-2.713,64.55h13.894c-0.487-1.223-0.883-2.479-1.187-3.759
		l-5.197-3.658l1.152-1.635l3.527,2.483c-0.239-1.839-0.294-3.7-0.168-5.551l-4.373-4.528l1.438-1.389l3.233,3.347
		c0.229-1.415,0.558-2.813,1.004-4.173l-2.841-5.617l1.786-0.902l2.029,4.014c0.283-0.637,0.582-1.267,0.915-1.879
		c0.322-0.591,0.678-1.161,1.034-1.729l-2.854-5.644l1.784-0.902l2.328,4.603c0.152-0.227,0.303-0.46,0.454-0.684
		c0.962-1.423,1.957-2.895,2.763-4.412c2.059-3.871,3.017-8.228,2.771-12.597c-0.11-1.956-0.875-8.393-6.094-9.13
		c-1.83-0.258-4.366-0.128-6,1.012c-1.946,1.357-4.002,3.823-3.935,6.67c0.06,2.52,2.272,4.736,4.735,4.746
		c2.189,0.032,3.912-1.951,3.984-3.646c0.064-1.521-1.341-1.953-2.532-2.049l0.161-1.994c3.338,0.269,4.446,2.309,4.369,4.128
		c-0.111,2.63-2.685,5.561-5.967,5.561h-0.023c-3.561-0.014-6.641-3.081-6.726-6.698c-0.073-3.091,1.718-6.215,4.79-8.359
		c1.791-1.249,4.566-1.751,7.423-1.352c4.54,0.641,7.46,4.752,7.812,10.997c0.266,4.736-0.772,9.456-3.002,13.65
		c-0.856,1.61-1.881,3.126-2.873,4.593c-0.011,0.017-0.022,0.034-0.033,0.049l4.584-1.26l0.53,1.927l-6.774,1.864
		c-0.333,0.533-0.656,1.069-0.952,1.613c-0.39,0.716-0.733,1.455-1.048,2.205l5.335-1.469l0.53,1.928l-6.701,1.845
		c-0.38,1.236-0.67,2.5-0.859,3.781l5.011-1.737l0.655,1.891l-5.89,2.041c-0.11,1.773-0.047,3.558,0.206,5.315l3.714-2.239
		l1.033,1.712l-4.347,2.622c0.348,1.506,0.834,2.979,1.457,4.396h12.3v-41.85l1.345,2.438l14.145-7.043L183.65,60.116z
		 M160.292,9.609c-0.867,0-1.57-0.702-1.57-1.569c0-0.866,0.703-1.569,1.57-1.569c0.866,0,1.569,0.703,1.569,1.569
		C161.861,8.908,161.158,9.609,160.292,9.609 M159.862,32.2c-0.867,0-1.569-0.702-1.569-1.569c0-0.867,0.702-1.569,1.569-1.569
		c0.866,0,1.569,0.702,1.569,1.569C161.431,31.498,160.728,32.2,159.862,32.2 M169.167,35.375c0.286,0.468,0.57,0.933,0.835,1.396
		c1.746,3.058,2.334,7.291-0.502,9.362l-1.179-1.615c1.969-1.438,1.045-4.827-0.056-6.754c-0.255-0.448-0.529-0.896-0.805-1.346
		c-1.322-2.162-2.819-4.613-2.44-7.369c0.283-2.061,1.527-3.689,2.729-5.263c1.175-1.536,2.283-2.988,2.323-4.646
		c0.035-1.538-0.859-2.954-1.806-4.453c-0.772-1.221-1.57-2.484-1.957-3.939c-0.868-3.268,0.726-6.932,3.709-8.522l0.941,1.763
		c-2.15,1.148-3.343,3.891-2.717,6.245c0.309,1.16,0.991,2.241,1.714,3.385c1.065,1.684,2.165,3.425,2.115,5.568
		c-0.055,2.308-1.416,4.09-2.732,5.813c-1.094,1.432-2.126,2.783-2.338,4.322C166.72,31.371,167.909,33.314,169.167,35.375
		 M174.853,61.028c-0.866,0-1.569-0.702-1.569-1.569s0.703-1.569,1.569-1.569c0.866,0,1.569,0.702,1.569,1.569
		S175.719,61.028,174.853,61.028 M207.668,4.202l1.629,8.994l-1.969,0.356l-1.207-6.666l-6.275,2.259l-0.678-1.881L207.668,4.202z
		 M203.027,12.378l1.628,8.993l-1.968,0.356l-1.207-6.667l-6.275,2.259l-0.678-1.881L203.027,12.378z M198.483,20.384l1.629,8.993
		l-1.969,0.355l-1.207-6.667l-6.276,2.26l-0.677-1.881L198.483,20.384z M194.25,27.839l1.458,8.058l-1.967,0.356l-1.038-5.731
		l-5.393,1.942l-0.677-1.881L194.25,27.839z M189.333,36.502l1.2,6.623l-1.968,0.357l-0.779-4.298l-4.041,1.455l-0.677-1.883
		L189.333,36.502z M178.428,66.838c-0.866,0-1.569-0.702-1.569-1.569c0-0.867,0.703-1.568,1.569-1.568
		c0.867,0,1.569,0.702,1.569,1.568C179.997,66.136,179.295,66.838,178.428,66.838 M180.719,47.208l-0.677-1.883l4.869-1.751
		l0.931,5.144l-1.968,0.355l-0.51-2.817L180.719,47.208z"/>
	<path clip-path="url(#SVGID_2_)" fill="#FFFFFF" d="M151.101,12.834l-0.633,15.06l12.539-8.488L151.101,12.834z M155.381,21.462
		c-0.867,0-1.569-0.703-1.569-1.569c0-0.867,0.702-1.569,1.569-1.569s1.569,0.702,1.569,1.569
		C156.95,20.759,156.248,21.462,155.381,21.462"/>
	<path clip-path="url(#SVGID_2_)" fill="#FFFFFF" d="M150.216,33.904l-0.68,16.18l13.471-9.119L150.216,33.904z M155.381,43.021
		c-0.867,0-1.569-0.702-1.569-1.569c0-0.867,0.702-1.569,1.569-1.569s1.569,0.702,1.569,1.569
		C156.95,42.319,156.248,43.021,155.381,43.021"/>
	<polygon clip-path="url(#SVGID_2_)" fill="#FFFFFF" points="191.679,72.351 177.396,79.462 183.237,90.042 194.626,76.841 	"/>
	<polygon clip-path="url(#SVGID_2_)" fill="#FFFFFF" points="195.767,78.581 184.268,91.909 188.823,100.162 203.025,89.642 	"/>
	<path clip-path="url(#SVGID_2_)" fill="#FFFFFF" d="M234.284,26.764c-0.063,0.157-0.231,0.576,0.412,1.387
		c0.59,0.74,1.066,0.779,1.369,0.742c1.468-0.171,3.334-2.586,4.682-4.864c0.049-0.107,0.097-0.216,0.144-0.318
		C238.006,24.325,234.813,25.45,234.284,26.764"/>
	<polygon clip-path="url(#SVGID_2_)" fill="#FFFFFF" points="276.24,79.443 260.991,87.037 268.01,100.11 280.423,85.722 	"/>
	<path clip-path="url(#SVGID_2_)" fill="#FFFFFF" d="M242.644,24.743c-0.024,0.042-0.046,0.082-0.071,0.125
		c-1.177,2.661-2.107,5.803-1.372,6.983c0.089,0.146,0.339,0.529,1.363,0.487c0.945-0.038,1.256-0.4,1.408-0.667
		c0.728-1.284-0.115-4.196-1.154-6.621C242.757,24.944,242.7,24.844,242.644,24.743"/>
	<polygon clip-path="url(#SVGID_2_)" fill="#FFFFFF" points="270.323,70.56 257.317,80.195 260.044,85.273 275.123,77.765 	"/>
	<path clip-path="url(#SVGID_2_)" fill="#FFFFFF" d="M269.04,101.976l-0.053-0.045l8.19,15.253h24.202l-19.807-29.733
		L269.04,101.976z M286.336,109.576c0.867,0,1.569,0.701,1.569,1.568c0,0.866-0.702,1.568-1.569,1.568
		c-0.866,0-1.568-0.702-1.568-1.568C284.768,110.277,285.47,109.576,286.336,109.576 M282.761,103.764
		c0.867,0,1.569,0.703,1.569,1.569c0,0.867-0.702,1.569-1.569,1.569c-0.866,0-1.568-0.702-1.568-1.569
		C281.192,104.467,281.895,103.764,282.761,103.764"/>
	<path clip-path="url(#SVGID_2_)" fill="#FFFFFF" d="M244.422,23.731c0.065,0.145,0.131,0.289,0.198,0.446
		c1.318,2.253,3.12,4.599,4.559,4.781c0.304,0.038,0.779,0.004,1.376-0.73c0.652-0.804,0.487-1.224,0.426-1.383
		C250.465,25.526,247.295,24.373,244.422,23.731"/>
	<path clip-path="url(#SVGID_2_)" fill="#FFFFFF" d="M263.344,60.083l40.678-60.078h-28.349L254.756,45.5V0.004h-4.864
		c-2.494,1.359-5.208,3.408-6.77,6.381c-1.846,3.515-1.479,7.862,0.869,10.337c1.068,1.126,2.816,1.897,4.096,1.186
		c0.388-0.215,0.742-0.572,1.054-1.061c0.557-0.876,0.757-1.897,0.535-2.73c-0.226-0.849-0.94-1.529-1.699-1.616l-0.229-0.054
		c-0.271-0.098-0.785-0.026-1.057,0.15c-0.255,0.166-0.434,0.47-0.454,0.775c-0.014,0.204,0.048,0.405,0.156,0.513
		c0.075,0.074,0.187,0.091,0.219,0.079l0.759,1.85c-0.791,0.326-1.747,0.121-2.382-0.505c-0.528-0.521-0.801-1.276-0.748-2.071
		c0.064-0.938,0.571-1.804,1.358-2.317c0.768-0.5,1.864-0.657,2.717-0.392c1.524,0.226,2.869,1.474,3.294,3.075
		c0.367,1.383,0.082,2.957-0.78,4.316c-0.493,0.773-1.089,1.358-1.771,1.737c-0.664,0.368-1.364,0.528-2.063,0.528
		c-1.688,0-3.359-0.931-4.455-2.086c-0.292-0.308-0.554-0.642-0.797-0.987c-0.499,1.262-1.289,2.464-2.568,3.254
		c-0.684,0.424-1.404,0.646-2.096,0.646c-0.048,0-0.097-0.001-0.146-0.003c-0.545-0.026-1.098-0.19-1.644-0.489
		c-1.052-0.579-1.778-1.51-1.995-2.554c-0.267-1.285,0.33-2.637,1.418-3.213c0.626-0.332,1.413-0.371,2.105-0.103
		c0.65,0.251,1.149,0.747,1.37,1.36c0.221,0.611,0.16,1.299-0.162,1.838l-1.717-1.026c0.01-0.017,0.02-0.077-0.003-0.134
		c-0.022-0.065-0.103-0.131-0.209-0.172c-0.151-0.059-0.334-0.059-0.448,0.005c-0.305,0.16-0.481,0.627-0.396,1.039
		c0.096,0.464,0.47,0.916,0.999,1.207c0.275,0.151,0.535,0.233,0.772,0.244c0.412,0.02,0.826-0.177,1.097-0.345
		c1.528-0.944,2.085-2.949,2.289-4.295c-0.85-2.783-0.568-6.043,0.939-8.916c1.07-2.037,2.714-3.872,4.832-5.451h-14.87
		l-4.921,117.116h28.364V75.423l1.605,2.989l12.852-9.52L263.344,60.083z M281.17,1.875c1.271,1.813,3.402,2.839,5.672,2.749
		c1.859-0.073,3.871-0.815,6.333-2.334l1.051,1.703c-1.741,1.074-4.393,2.515-7.305,2.629c-0.12,0.005-0.24,0.008-0.359,0.008
		c-2.826,0-5.434-1.331-7.028-3.606L281.17,1.875z M280.99,7.396c2.274,2.63,6.031,3.079,8.551,1.018l1.266,1.549
		c-1.438,1.175-3.171,1.747-4.917,1.747c-2.339,0-4.702-1.027-6.413-3.006L280.99,7.396z M240.515,113.738l-6.271-7.966l1.572-1.236
		l4.808,6.108l5.148-5.668l1.48,1.346L240.515,113.738z M240.816,103.161l-6.271-7.966l1.572-1.236l4.808,6.109l5.148-5.669
		l1.48,1.346L240.816,103.161z M241.111,92.804l-6.271-7.966l1.572-1.236l4.808,6.108l5.148-5.668l1.48,1.346L241.111,92.804z
		 M241.375,83.568l-6.271-7.966l1.572-1.236l4.809,6.108l5.148-5.668l1.48,1.346L241.375,83.568z M241.677,72.992l-6.271-7.966
		l1.572-1.236l4.809,6.108l5.147-5.667l1.48,1.345L241.677,72.992z M237.613,54.727l4.185,5.316l4.479-4.932l1.48,1.346l-6.069,6.68
		l-5.647-7.174L237.613,54.727z M237.015,46.706l1.572-1.236l3.229,4.101l3.453-3.802l1.48,1.344l-5.043,5.552L237.015,46.706z
		 M249.331,30.967c-0.143,0-0.278-0.01-0.404-0.025c-0.963-0.122-1.897-0.695-2.761-1.48c0.128,1.196,0.038,2.325-0.454,3.193
		c-0.411,0.727-1.277,1.608-3.068,1.68c-0.077,0.003-0.152,0.005-0.227,0.005c-1.665,0-2.503-0.771-2.915-1.433
		c-0.561-0.901-0.64-2.132-0.463-3.448c-0.86,0.76-1.789,1.309-2.741,1.42c-0.117,0.014-0.242,0.022-0.373,0.022
		c-0.799,0-1.836-0.302-2.794-1.506c-1.131-1.423-1.006-2.622-0.702-3.378c1.323-3.288,8.731-4.445,10.203-4.643l0.028,0.038
		l0.026-0.037c1.47,0.212,8.866,1.442,10.156,4.742c0.297,0.759,0.41,1.959-0.735,3.37C251.15,30.667,250.125,30.967,249.331,30.967
		 M254.683,58.921l-1.691-1.068l6.67-10.552l-0.287-7.066l1.998-0.08l0.17,4.17l4.598-7.275l-0.404-7.126l1.996-0.113l0.246,4.331
		l5.315-8.409l-0.385-6.773l1.996-0.113l0.226,3.978l6.079-9.619l1.691,1.069l-2.603,4.118l3.797-1.467l0.721,1.865l-6.31,2.438
		l-4.759,7.528l4.228-1.633l0.721,1.865l-6.68,2.58l-0.017-0.044l-5.103,8.072l3.905-1.509l0.721,1.865l-6.418,2.48l-6.082,9.622
		l3.914-1.512l0.721,1.865l-6.427,2.483L254.683,58.921z"/>
	<path clip-path="url(#SVGID_2_)" fill="#FFFFFF" d="M359.018,97.879c3.369,0,6.109-2.135,6.109-4.76
		c0-0.257-0.033-0.507-0.084-0.753l-12.087,1.326C353.321,96.047,355.898,97.879,359.018,97.879"/>
	<path clip-path="url(#SVGID_2_)" fill="#FFFFFF" d="M323.655,25.377c-2.07-0.339-3.969-1.181-5.805-1.994
		c-1.473-0.652-2.863-1.27-4.331-1.645c-1.207-0.308-2.511-0.33-3.698-0.103l-0.322,7.652c1.876,0.542,3.847,0.476,4.9,0.374
		c1.063-0.099,2.159-0.274,3.219-0.444c2.257-0.361,4.594-0.736,6.959-0.462c1.501,0.172,2.937,0.597,4.325,1.007
		c1.434,0.424,2.786,0.823,4.18,0.958c0.357,0.034,0.724,0.036,1.091,0.014v-6.188c-0.863,0.109-1.738,0.252-2.633,0.4
		C328.973,25.372,326.319,25.813,323.655,25.377"/>
	<path clip-path="url(#SVGID_2_)" fill="#FFFFFF" d="M326.184,37.946c-0.854-0.43-1.66-0.837-2.504-1.05
		c-2.199-0.56-4.573,0.205-6.81,1.108l-0.805,0.329c-2.168,0.893-4.41,1.815-6.859,1.815h-0.022c-0.046,0-0.094-0.004-0.141-0.005
		l-3.235,77.001c0,0.052,82.983-0.029,82.983-0.029V89.763l-4.931,0.541c0.093,0.452,0.15,0.915,0.15,1.39
		c0,4.423-4.215,8.021-9.395,8.021c-3.461,0-6.483-1.61-8.113-3.997c-1.225,2.441-4.117,4.162-7.485,4.162
		c-2.597,0-4.906-1.026-6.392-2.613c-1.027,2.331-3.773,4.007-7,4.007c-4.074,0-7.391-2.669-7.433-5.962l-4.021,0.44V58.527h39
		v-6.34l-5.184,4.895l-6.235-5.103l-5.066,5.254l-7.33-4.823l-6.442,4.736l-7.033-4.344l1.051-1.701l5.885,3.635l6.477-4.762
		l7.106,4.675l5.193-5.385l6.302,5.156l5.277-4.983v-7.993h-39v-1.502c-2.322,0.008-4.654-0.45-6.77-1.402
		C326.992,38.353,326.588,38.15,326.184,37.946 M364.417,46.897c0.376-0.78,1.313-1.109,2.095-0.733
		c0.78,0.376,1.11,1.313,0.733,2.094c-0.375,0.781-1.313,1.109-2.094,0.734C364.37,48.616,364.042,47.679,364.417,46.897
		 M353.329,46.624c0.377-0.78,1.314-1.109,2.095-0.733s1.11,1.313,0.734,2.094c-0.376,0.781-1.313,1.109-2.094,0.734
		C353.283,48.343,352.954,47.406,353.329,46.624 M341.118,46.616c0.376-0.781,1.313-1.109,2.095-0.734
		c0.78,0.376,1.109,1.314,0.733,2.095c-0.376,0.78-1.313,1.109-2.094,0.733C341.071,48.335,340.743,47.397,341.118,46.616
		 M317.024,93.881l-0.188,1.941c-1.369,0.176-2.878,1.506-2.944,3.206c-0.067,1.738,1.468,3.461,2.834,3.782l-0.083,1.963
		c-1.459,0.217-3.164,1.771-3.074,3.278c0.099,1.629,1.019,2.547,2.464,2.476l0.998-0.056l0.11,1.997l-0.999,0.055
		c-0.097,0.006-0.193,0.009-0.288,0.009c-2.416,0-4.122-1.72-4.281-4.36c-0.109-1.826,1.068-3.521,2.592-4.515
		c-1.326-1.1-2.343-2.841-2.271-4.707c0.074-1.916,1.175-3.446,2.564-4.325c-1.371-1.204-2.395-3.05-2.209-4.815
		c0.269-2.563,2.323-4.725,4.579-4.817l1-0.041l0.082,1.998l-0.998,0.041c-1.262,0.053-2.511,1.466-2.675,3.028
		C314.081,91.521,315.665,93.43,317.024,93.881 M327.325,94.506l-0.188,1.941c-1.326,0.17-2.789,1.459-2.854,3.107
		c-0.065,1.688,1.424,3.359,2.749,3.671l-0.083,1.963c-1.416,0.21-3.069,1.716-2.981,3.175c0.096,1.579,1.008,2.478,2.38,2.396
		l0.999-0.056l0.11,1.997l-0.998,0.055c-0.096,0.006-0.191,0.009-0.285,0.009c-2.371,0-4.046-1.688-4.202-4.28
		c-0.107-1.778,1.028-3.429,2.506-4.405c-1.345-1.136-2.258-2.914-2.192-4.603c0.072-1.867,1.139-3.36,2.489-4.225
		c-1.332-1.182-2.322-2.981-2.142-4.702c0.264-2.513,2.28-4.633,4.493-4.726l0.999-0.042l0.084,1.998l-0.999,0.042
		c-1.221,0.051-2.43,1.423-2.588,2.937C324.469,92.215,326.006,94.068,327.325,94.506 M334.05,108.037
		c0.76,0.67,1.478,1.303,2.243,1.502c1.289,0.335,2.582-0.52,4.081-1.513c1.477-0.977,3.002-1.986,4.811-1.986h0.042
		c1.663,0.015,3.083,0.888,4.456,1.731c1.41,0.867,2.628,1.618,3.821,1.307c0.782-0.204,1.502-0.871,2.264-1.576
		c0.824-0.763,1.676-1.552,2.784-1.95c2.29-0.826,4.467,0.397,6.384,1.474c1.681,0.942,3.269,1.833,4.701,1.365
		c0.718-0.233,1.404-0.813,2.132-1.425c1.023-0.863,2.185-1.842,3.685-1.939c1.729-0.107,3.134,0.988,4.364,1.959
		c0.315,0.249,0.63,0.497,0.947,0.722c0.779,0.553,1.788,0.82,2.448,0.644c0.343-0.09,0.576-0.285,0.73-0.615l1.809,0.855
		c-0.41,0.866-1.113,1.454-2.031,1.694c-1.497,0.393-3.104-0.232-4.112-0.945c-0.345-0.244-0.687-0.514-1.029-0.784
		c-1.04-0.82-2.022-1.605-2.997-1.533c-0.843,0.055-1.66,0.743-2.524,1.473c-0.842,0.709-1.712,1.442-2.802,1.798
		c-2.268,0.734-4.408-0.463-6.299-1.523c-1.694-0.952-3.293-1.854-4.729-1.335c-0.725,0.26-1.393,0.879-2.101,1.535
		c-0.91,0.843-1.851,1.714-3.119,2.044c-2.017,0.524-3.799-0.571-5.373-1.539c-1.192-0.732-2.318-1.425-3.426-1.435h-0.023
		c-1.208,0-2.422,0.804-3.707,1.654c-1.375,0.909-2.901,1.92-4.608,1.92c-0.353,0-0.714-0.044-1.082-0.14
		c-1.226-0.32-2.158-1.143-3.061-1.938c-0.776-0.684-1.51-1.33-2.291-1.51l0.449-1.949
		C332.16,106.372,333.122,107.217,334.05,108.037 M330.617,52.478l-0.956,0.295c-3.675,1.136-6.707,4.848-7.726,9.458
		c-0.99,4.486-0.227,9.235,0.567,13.334l0.19,0.982l-1.964,0.38l-0.189-0.981c-0.832-4.296-1.63-9.286-0.558-14.147
		c1.189-5.382,4.672-9.573,9.089-10.936l0.955-0.296L330.617,52.478z M328.893,44.853l0.212,1.989l-0.995,0.106
		c-6.07,0.647-10.537,6.078-12.271,11.173c-1.986,5.84-1.526,12.385-0.939,18.062l0.103,0.994l-1.989,0.206l-0.104-0.995
		c-0.608-5.887-1.08-12.687,1.037-18.912c1.937-5.696,7.002-11.776,13.952-12.517L328.893,44.853z"/>
	<path clip-path="url(#SVGID_2_)" fill="#FFFFFF" d="M345.626,99.273c2.998,0,5.438-1.806,5.438-4.024
		c0-0.461-0.11-0.902-0.304-1.315l-10.559,1.157c-0.003,0.053-0.012,0.105-0.012,0.158
		C340.189,97.467,342.628,99.273,345.626,99.273"/>
	<path clip-path="url(#SVGID_2_)" fill="#FFFFFF" d="M374.616,97.714c4.077,0,7.395-2.701,7.395-6.021
		c0-0.399-0.05-0.791-0.143-1.17l-14.619,1.603C367.522,95.244,370.719,97.714,374.616,97.714"/>
	<path clip-path="url(#SVGID_2_)" fill="#FFFFFF" d="M332.891,32.71c-1.585-0.152-3.095-0.599-4.555-1.03
		c-1.367-0.405-2.658-0.785-3.987-0.939c-2.094-0.24-4.193,0.095-6.415,0.45c-1.091,0.175-2.219,0.356-3.347,0.462
		c-1.346,0.126-3.266,0.156-5.175-0.307l-0.285,6.797c0.021,0.001,0.042,0.004,0.062,0.004h0.018c2.054,0,4.019-0.808,6.099-1.664
		l0.814-0.333c2.431-0.983,5.285-1.892,8.051-1.194c1.058,0.268,2.001,0.743,2.914,1.204c0.378,0.191,0.757,0.382,1.142,0.556
		c1.858,0.838,3.894,1.26,5.947,1.23v-5.209c-0.142,0.007-0.283,0.014-0.425,0.014C333.46,32.751,333.174,32.737,332.891,32.71"/>
	<path clip-path="url(#SVGID_2_)" fill="#FFFFFF" d="M388.791,23.385V0.004h-54.475l-0.144,0.255V0.004h-23.443l-0.823,19.59
		c1.342-0.194,2.764-0.136,4.108,0.207c1.631,0.417,3.164,1.097,4.646,1.754c1.8,0.797,3.499,1.551,5.316,1.848
		c2.338,0.383,4.716-0.012,7.235-0.43c0.976-0.161,1.965-0.319,2.96-0.435v-3.26L388.791,23.385z M342.618,16.916
		c-1.813,1.932-4.372-3.913-4.372-3.913S344.493,14.919,342.618,16.916 M355.447,16.916c-1.813,1.932-4.372-3.913-4.372-3.913
		S357.322,14.919,355.447,16.916 M375.284,2.554l0.004-0.062l0.018,0.032l0.02-0.028l-0.003,0.058l4.432,8.055l-5.318,7.468
		l0.012-0.208l-0.012,0.198l-4.449-8.008L375.284,2.554z M355.836,2.388c1.495,2.186-4.764,3.425-4.764,3.425
		S354.29,0.126,355.836,2.388 M343.006,2.388c1.496,2.186-4.763,3.425-4.763,3.425S341.461,0.126,343.006,2.388 M329.757,2.388
		c1.495,2.186-4.763,3.425-4.763,3.425S328.211,0.126,329.757,2.388 M329.368,16.916c-1.813,1.932-4.371-3.913-4.371-3.913
		S331.243,14.919,329.368,16.916 M317.277,9.479l0.066-1.998l48.131,1.62l-0.066,1.998L317.277,9.479z"/>
	<polygon clip-path="url(#SVGID_2_)" fill="#2B6C7E" points="32.387,0.008 0,0.008 8.472,117.111 80.058,117.111 83.497,86.735 
		29.795,88.921 	"/>
	<polygon clip-path="url(#SVGID_2_)" fill="#2B6C7E" points="117.562,0.008 101.666,38.774 85.58,0.008 58.148,0.008 93.745,50.156 
		87.104,116.993 96.97,117.016 96.969,117.034 101.666,117.025 106.362,117.034 106.361,117.016 119.29,116.993 109.262,50.481 
		144.969,0.008 	"/>
	<polygon clip-path="url(#SVGID_2_)" fill="#2B6C7E" points="224.349,0.008 196,0.008 175.083,45.503 175.083,0.008 151.641,0.008 
		146.72,117.125 175.083,117.125 175.083,75.275 205.218,129.867 229.42,129.867 183.649,60.119 	"/>
	<polygon clip-path="url(#SVGID_2_)" fill="#2B6C7E" points="275.673,0.008 254.756,45.503 254.756,0.008 231.313,0.008 
		226.392,117.125 254.756,117.125 254.756,75.428 277.178,117.189 301.38,117.189 263.344,60.086 304.021,0.008 	"/>
	<path clip-path="url(#SVGID_2_)" fill="#2B6C7E" d="M388.791,23.389V0.008h-54.475l-0.144,0.255V0.008h-23.443l-4.922,117.14
		c0,0.053,82.983-0.028,82.983-0.028V89.768l-54.618,5.987V58.531h39V41.448h-39V19.283L388.791,23.389z"/>
	<path clip-path="url(#SVGID_2_)" fill="#FFFFFF" d="M21.289,84.035c0.367,1.027,1.094,1.852,1.736,2.578
		c0.744,0.842,1.388,1.57,1.373,2.394l2,0.035c0.028-1.601-0.983-2.744-1.874-3.753c-0.573-0.649-1.114-1.262-1.351-1.926
		c-0.562-1.575,0.573-3.248,1.775-5.021c1.315-1.94,2.806-4.139,2.162-6.614c-0.364-1.396-1.351-2.485-2.222-3.447
		c-0.963-1.062-1.794-1.979-1.704-3.047c0.086-1.016,0.982-1.803,2.02-2.715c1.152-1.012,2.458-2.159,2.701-3.894
		c0.286-2.046-1.028-3.589-2.188-4.95c-0.898-1.054-1.746-2.05-1.845-3.148c-0.117-1.303,0.83-2.551,1.831-3.871
		c1.203-1.586,2.566-3.383,2.097-5.587c-0.276-1.295-1.141-2.305-1.905-3.197c-0.796-0.928-1.482-1.73-1.404-2.614
		c0.071-0.804,0.762-1.463,1.563-2.226c0.831-0.792,1.773-1.689,2.126-2.959c0.605-2.17-0.74-4.06-1.926-5.728
		c-1.247-1.754-1.969-2.899-1.479-4.004c0.265-0.598,0.903-1.075,1.578-1.579c0.94-0.704,2.005-1.499,2.338-2.864
		c0.483-1.971-0.825-3.42-1.979-4.696c-0.551-0.61-1.073-1.188-1.397-1.788c-0.46-0.852-0.443-1.973,0.045-2.998
		c0.48-1.007,1.319-1.713,2.244-1.888l-0.372-1.965c-1.549,0.293-2.924,1.412-3.677,2.993c-0.762,1.6-0.762,3.397,0.001,4.808
		c0.438,0.813,1.066,1.507,1.672,2.179c1.09,1.206,1.736,2.001,1.521,2.881c-0.163,0.667-0.826,1.162-1.593,1.736
		c-0.812,0.606-1.731,1.294-2.209,2.37c-0.988,2.226,0.428,4.217,1.677,5.974c1.017,1.43,1.978,2.781,1.629,4.032
		c-0.205,0.739-0.872,1.375-1.579,2.048c-0.955,0.91-2.038,1.942-2.176,3.498c-0.152,1.723,0.926,2.981,1.878,4.092
		c0.667,0.779,1.298,1.514,1.468,2.311c0.278,1.309-0.655,2.538-1.734,3.962c-1.133,1.493-2.416,3.185-2.23,5.259
		c0.156,1.731,1.303,3.078,2.315,4.266c1.014,1.191,1.891,2.22,1.729,3.376c-0.14,1-1.063,1.81-2.04,2.668
		c-1.19,1.045-2.539,2.23-2.693,4.05c-0.163,1.934,1.1,3.328,2.214,4.558c0.787,0.868,1.53,1.688,1.769,2.608
		c0.416,1.599-0.7,3.245-1.882,4.989C21.931,79.228,20.387,81.504,21.289,84.035"/>
	<path clip-path="url(#SVGID_2_)" fill="#FFFFFF" d="M43.02,106.717c0.988-0.807,1.682-1.956,1.623-3.212
		c-0.06-1.278-0.852-2.322-1.905-2.995c1.011-0.853,1.77-2.049,1.607-3.307c-0.248-1.895-2.083-3.493-4.092-3.562l-0.999-0.035
		l-0.068,1.999l0.999,0.034c1.037,0.036,2.054,0.888,2.176,1.822c0.097,0.742-1.132,1.972-2.266,2.269l0.151,1.963
		c1.236,0.128,2.357,1.018,2.399,1.905c0.042,0.896-1.122,2.033-2.308,2.253l0.065,1.977c1.232,0.146,2.57,1.157,2.512,1.898
		c-0.106,1.354-1.444,1.434-2.006,1.414l-0.999-0.045l-0.09,1.998l0.999,0.045c0.084,0.004,0.167,0.006,0.249,0.006
		c2.156,0,3.687-1.287,3.841-3.263C45.007,108.609,44.176,107.465,43.02,106.717"/>
	<path clip-path="url(#SVGID_2_)" fill="#FFFFFF" d="M55.003,106.435c1.02-0.821,1.739-2.001,1.679-3.289
		c-0.063-1.313-0.881-2.383-1.967-3.065c1.042-0.871,1.829-2.098,1.661-3.386c-0.252-1.932-2.122-3.559-4.167-3.627l-0.999-0.034
		l-0.068,1.999l1,0.033c1.072,0.036,2.124,0.918,2.25,1.889c0.101,0.768-1.167,2.042-2.339,2.349l0.152,1.962
		c1.277,0.131,2.435,1.054,2.479,1.975c0.044,0.945-1.136,2.1-2.383,2.331l0.064,1.977c1.297,0.154,2.655,1.185,2.594,1.969
		c-0.077,0.977-0.855,1.541-2.08,1.472l-0.999-0.045l-0.089,1.998l0.999,0.045c0.085,0.004,0.17,0.006,0.254,0.006
		c2.193,0,3.751-1.31,3.909-3.319C57.054,108.368,56.194,107.197,55.003,106.435"/>
	<path clip-path="url(#SVGID_2_)" fill="#FFFFFF" d="M327.209,87.828l0.999-0.041l-0.082-1.998l-0.999,0.041
		c-2.215,0.091-4.229,2.211-4.494,4.725c-0.181,1.722,0.809,3.521,2.142,4.702c-1.351,0.865-2.417,2.358-2.489,4.226
		c-0.065,1.689,0.849,3.466,2.194,4.602c-1.479,0.978-2.615,2.629-2.508,4.406c0.156,2.593,1.832,4.28,4.204,4.279
		c0.093,0,0.188-0.002,0.282-0.008l0.999-0.055l-0.11-1.997l-0.998,0.055c-1.396,0.089-2.285-0.818-2.381-2.396
		c-0.088-1.458,1.566-2.966,2.982-3.176l0.082-1.963c-1.325-0.312-2.814-1.983-2.749-3.67c0.064-1.647,1.527-2.938,2.854-3.108
		l0.188-1.941c-1.319-0.438-2.856-2.29-2.704-3.747C324.78,89.25,325.989,87.878,327.209,87.828"/>
	<path clip-path="url(#SVGID_2_)" fill="#FFFFFF" d="M316.913,86.995l0.999-0.042l-0.084-1.998l-0.999,0.042
		c-2.257,0.095-4.311,2.256-4.579,4.817c-0.186,1.766,0.838,3.611,2.21,4.816c-1.391,0.879-2.491,2.409-2.565,4.324
		c-0.072,1.866,0.944,3.607,2.271,4.708c-1.524,0.993-2.702,2.688-2.593,4.514c0.159,2.641,1.865,4.36,4.281,4.36
		c0.095,0,0.191-0.003,0.287-0.009l1-0.055l-0.11-1.997l-0.998,0.056c-1.445,0.073-2.365-0.846-2.464-2.476
		c-0.09-1.506,1.615-3.061,3.074-3.277l0.083-1.963c-1.366-0.322-2.901-2.045-2.835-3.783c0.067-1.699,1.577-3.029,2.945-3.206
		l0.188-1.941c-1.359-0.451-2.943-2.36-2.786-3.862C314.402,88.462,315.652,87.047,316.913,86.995"/>
	<path clip-path="url(#SVGID_2_)" fill="#FFFFFF" d="M72.466,91.844c-0.764-0.341-1.99-0.511-3.493,0.599
		c-1.482,1.095-1.711,2.343-1.642,3.196c0.081,1.012,0.643,2.015,1.428,2.952c-1.387-0.25-2.698-0.224-3.671,0.334
		c-0.725,0.416-1.587,1.304-1.578,3.173c0.008,1.843,0.881,2.764,1.611,3.213c0.719,0.441,1.628,0.616,2.616,0.616
		c0.247,0,0.499-0.014,0.754-0.034c-0.874,0.879-1.528,1.843-1.693,2.854c-0.138,0.847-0.011,2.108,1.377,3.32
		c0.917,0.8,1.761,1.048,2.456,1.048c0.372,0,0.702-0.071,0.977-0.167c3.452-1.21,4.997-8.82,5.271-10.333l-0.029-0.023l0.031-0.021
		C76.73,101.04,75.809,93.33,72.466,91.844 M69.324,95.478c-0.026-0.327,0.032-0.832,0.837-1.426
		c0.503-0.371,0.863-0.468,1.111-0.468c0.187,0,0.309,0.055,0.381,0.087c1.368,0.607,2.43,4.026,2.958,7.071
		c-0.124-0.063-0.255-0.128-0.388-0.193C71.9,99.061,69.448,97.021,69.324,95.478 M66.168,103.607
		c-0.28-0.173-0.654-0.518-0.658-1.519c-0.005-1.096,0.415-1.338,0.573-1.429c0.281-0.162,0.659-0.233,1.109-0.233
		c1.572,0,4.004,0.886,6.126,1.916c0.064,0.04,0.122,0.075,0.184,0.113c-0.126,0.064-0.251,0.129-0.383,0.199
		C70.553,103.647,67.485,104.415,66.168,103.607 M70.946,111.061c-0.171,0.062-0.63,0.22-1.456-0.501
		c-0.754-0.657-0.771-1.165-0.718-1.489c0.244-1.5,2.762-3.295,5.16-4.585c0.185-0.072,0.362-0.144,0.531-0.213
		C73.689,107.259,72.355,110.567,70.946,111.061"/>
	<path clip-path="url(#SVGID_2_)" fill="#FFFFFF" d="M252.843,26.122c-1.29-3.301-8.687-4.531-10.156-4.743l-0.026,0.037
		l-0.028-0.037c-1.472,0.198-8.88,1.354-10.203,4.642c-0.304,0.756-0.429,1.955,0.702,3.378c0.958,1.205,1.995,1.507,2.794,1.507
		c0.131,0,0.256-0.008,0.373-0.022c0.952-0.111,1.881-0.66,2.741-1.421c-0.177,1.316-0.098,2.548,0.463,3.45
		c0.412,0.662,1.25,1.432,2.915,1.432c0.074,0,0.149-0.002,0.227-0.005c1.79-0.072,2.656-0.953,3.068-1.679
		c0.492-0.869,0.582-1.998,0.454-3.195c0.863,0.785,1.798,1.358,2.761,1.48c0.127,0.016,0.262,0.026,0.404,0.026
		c0.795,0,1.82-0.3,2.776-1.479C253.253,28.082,253.14,26.88,252.843,26.122 M236.066,28.898c-0.31,0.031-0.78-0.002-1.37-0.743
		c-0.644-0.811-0.476-1.23-0.412-1.387c0.529-1.316,3.723-2.44,6.607-3.055c-0.048,0.104-0.097,0.214-0.146,0.323
		C239.4,26.314,237.536,28.726,236.066,28.898 M243.972,31.675c-0.152,0.269-0.464,0.629-1.408,0.667
		c-1.024,0.038-1.272-0.341-1.362-0.486c-0.735-1.181,0.193-4.323,1.37-6.984c0.025-0.043,0.047-0.083,0.072-0.126
		c0.055,0.098,0.108,0.194,0.167,0.296C243.853,27.472,244.7,30.393,243.972,31.675 M250.555,28.233
		c-0.597,0.734-1.075,0.766-1.376,0.729c-1.438-0.182-3.241-2.53-4.56-4.784c-0.067-0.155-0.132-0.299-0.197-0.443
		c2.875,0.644,6.044,1.798,6.559,3.115C251.042,27.008,251.207,27.429,250.555,28.233"/>
	<path clip-path="url(#SVGID_2_)" fill="#FFFFFF" d="M94.807,33.867c0.867,0,1.569-0.703,1.569-1.569
		c0-0.867-0.702-1.569-1.569-1.569s-1.569,0.702-1.569,1.569C93.238,33.164,93.939,33.867,94.807,33.867"/>
	<path clip-path="url(#SVGID_2_)" fill="#FFFFFF" d="M156.95,19.897c0-0.867-0.702-1.569-1.569-1.569
		c-0.867,0-1.569,0.702-1.569,1.569s0.702,1.569,1.569,1.569C156.248,21.466,156.95,20.764,156.95,19.897"/>
	<path clip-path="url(#SVGID_2_)" fill="#FFFFFF" d="M160.292,9.614c0.867,0,1.569-0.703,1.569-1.569
		c0-0.867-0.702-1.569-1.569-1.569s-1.569,0.702-1.569,1.569C158.723,8.911,159.424,9.614,160.292,9.614"/>
	<path clip-path="url(#SVGID_2_)" fill="#FFFFFF" d="M282.761,103.769c-0.866,0-1.568,0.702-1.568,1.568
		c0,0.867,0.702,1.569,1.568,1.569c0.867,0,1.569-0.702,1.569-1.569C284.33,104.471,283.628,103.769,282.761,103.769"/>
	<path clip-path="url(#SVGID_2_)" fill="#FFFFFF" d="M286.336,109.579c-0.866,0-1.568,0.702-1.568,1.569
		c0,0.866,0.702,1.568,1.568,1.568c0.867,0,1.569-0.702,1.569-1.568C287.905,110.281,287.203,109.579,286.336,109.579"/>
	<path clip-path="url(#SVGID_2_)" fill="#FFFFFF" d="M174.853,57.895c-0.866,0-1.569,0.703-1.569,1.569
		c0,0.867,0.703,1.569,1.569,1.569c0.867,0,1.569-0.702,1.569-1.569C176.421,58.598,175.72,57.895,174.853,57.895"/>
	<path clip-path="url(#SVGID_2_)" fill="#FFFFFF" d="M178.428,66.842c0.866,0,1.569-0.702,1.569-1.569
		c0-0.866-0.703-1.569-1.569-1.569c-0.867,0-1.569,0.703-1.569,1.569C176.859,66.14,177.561,66.842,178.428,66.842"/>
	<path clip-path="url(#SVGID_2_)" fill="#FFFFFF" d="M158.292,30.635c0,0.866,0.703,1.569,1.569,1.569
		c0.867,0,1.569-0.703,1.569-1.569c0-0.867-0.702-1.569-1.569-1.569C158.996,29.066,158.292,29.768,158.292,30.635"/>
	<path clip-path="url(#SVGID_2_)" fill="#FFFFFF" d="M90.208,24.778c0.866,0,1.569-0.703,1.569-1.569
		c0-0.867-0.703-1.569-1.569-1.569c-0.867,0-1.569,0.702-1.569,1.569C88.639,24.075,89.341,24.778,90.208,24.778"/>
	<path clip-path="url(#SVGID_2_)" fill="#FFFFFF" d="M85.717,15.689c0.867,0,1.569-0.703,1.569-1.569
		c0-0.867-0.702-1.569-1.569-1.569c-0.866,0-1.569,0.702-1.569,1.569C84.148,14.986,84.851,15.689,85.717,15.689"/>
	<path clip-path="url(#SVGID_2_)" fill="#FFFFFF" d="M81.173,6.221c0.867,0,1.569-0.703,1.569-1.569
		c0-0.867-0.702-1.569-1.569-1.569s-1.569,0.702-1.569,1.569C79.604,5.518,80.306,6.221,81.173,6.221"/>
	<path clip-path="url(#SVGID_2_)" fill="#FFFFFF" d="M364.417,46.902c-0.375,0.781-0.047,1.718,0.734,2.094s1.719,0.047,2.094-0.734
		c0.376-0.781,0.047-1.718-0.733-2.094C365.73,45.793,364.793,46.121,364.417,46.902"/>
	<path clip-path="url(#SVGID_2_)" fill="#FFFFFF" d="M353.33,46.629c-0.375,0.781-0.047,1.718,0.734,2.094
		c0.78,0.376,1.718,0.047,2.094-0.734c0.376-0.781,0.047-1.718-0.734-2.094C354.644,45.52,353.706,45.848,353.33,46.629"/>
	<path clip-path="url(#SVGID_2_)" fill="#FFFFFF" d="M341.118,46.621c-0.375,0.781-0.047,1.718,0.734,2.094
		c0.78,0.376,1.718,0.047,2.094-0.734c0.376-0.781,0.047-1.718-0.733-2.094C342.432,45.512,341.494,45.84,341.118,46.621"/>
	<path clip-path="url(#SVGID_2_)" fill="#FFFFFF" d="M26.591,96.96c0,0.866,0.703,1.568,1.569,1.568
		c0.867,0,1.569-0.702,1.569-1.568c0-0.867-0.702-1.569-1.569-1.569C27.294,95.391,26.591,96.093,26.591,96.96"/>
	<polygon clip-path="url(#SVGID_2_)" fill="#FFFFFF" points="263.657,52.414 262.937,50.549 259.022,52.06 265.105,42.437 
		271.522,39.958 270.802,38.093 266.897,39.601 271.999,31.529 272.016,31.574 278.695,28.994 277.975,27.128 273.748,28.762 
		278.507,21.232 284.815,18.795 284.094,16.931 280.299,18.396 282.9,14.28 281.209,13.211 275.13,22.831 274.904,18.852 
		272.908,18.966 273.293,25.738 267.978,34.147 267.731,29.815 265.735,29.93 266.14,37.055 261.542,44.331 261.372,40.16 
		259.374,40.24 259.661,47.306 252.991,57.857 254.683,58.927 257.23,54.896 	"/>
	<polygon clip-path="url(#SVGID_2_)" fill="#FFFFFF" points="9.95,78.899 8.376,80.133 13.244,86.348 13.366,89.072 15.364,88.984 
		14.797,76.223 14.868,76.271 19.564,69.321 17.907,68.202 14.655,73.014 14.084,60.152 18.635,53.418 16.977,52.298 13.935,56.8 
		13.318,42.905 17.863,36.179 16.206,35.06 13.17,39.554 12.645,27.733 12.727,27.789 17.423,20.839 15.766,19.72 12.503,24.548 
		12.015,13.552 16.484,6.939 14.826,5.82 11.867,10.201 11.591,3.982 9.593,4.07 10.207,17.92 7,13.826 5.426,15.058 10.36,21.357 
		10.903,33.586 7.44,29.166 5.866,30.4 11.038,37.003 11.054,36.99 11.667,50.816 8.212,46.404 6.637,47.636 11.81,54.24 
		11.819,54.232 12.36,66.417 9.141,62.308 7.567,63.541 12.513,69.854 13.092,82.91 	"/>
	<path clip-path="url(#SVGID_2_)" fill="#FFFFFF" d="M18.312,106.74c-2.968-3.093-4.352-7.637-3.61-11.858l-1.97-0.346
		c-0.849,4.838,0.736,10.045,4.137,13.589c2.942,3.065,7.18,4.824,11.422,4.824c0.663,0,1.327-0.043,1.986-0.131l-0.265-1.982
		C25.764,111.408,21.28,109.833,18.312,106.74"/>
	<path clip-path="url(#SVGID_2_)" fill="#FFFFFF" d="M22.979,102.014c-2.175-2.115-3.33-5.305-3.014-8.322l-1.989-0.209
		c-0.384,3.669,0.965,7.394,3.608,9.965c2.267,2.206,5.355,3.437,8.495,3.437c0.522,0,1.045-0.034,1.566-0.104l-0.263-1.982
		C28.375,105.202,25.154,104.13,22.979,102.014"/>
	<polygon clip-path="url(#SVGID_2_)" fill="#FFFFFF" points="94.108,38.669 92.475,44.62 94.403,45.148 96.624,37.063 
		89.204,35.824 91.331,28.381 83.333,27.167 85.286,18.991 77.875,18.256 80.415,10.246 72.545,9.789 74.487,2.2 65.032,2.014 
		64.993,4.014 71.923,4.149 70.005,11.645 77.731,12.093 75.224,20.002 82.808,20.755 80.882,28.816 88.783,30.019 86.665,37.428 	
		"/>
	<path clip-path="url(#SVGID_2_)" fill="#FFFFFF" d="M126.767,12.631c0,0,8.601-2.329,6.307-5.231
		C130.701,4.397,126.767,12.631,126.767,12.631"/>
	<path clip-path="url(#SVGID_2_)" fill="#FFFFFF" d="M120.091,22.894c0,0,8.465-2.781,6.021-5.558
		C123.584,14.463,120.091,22.894,120.091,22.894"/>
	<path clip-path="url(#SVGID_2_)" fill="#FFFFFF" d="M113.49,33.874c0,0,7.133-2.966,4.836-5.205
		C115.95,26.354,113.49,33.874,113.49,33.874"/>
	<path clip-path="url(#SVGID_2_)" fill="#FFFFFF" d="M121.214,7.49c-3.786-0.562-1.012,8.131-1.012,8.131
		S124.873,8.033,121.214,7.49"/>
	<path clip-path="url(#SVGID_2_)" fill="#FFFFFF" d="M355.836,2.392c-1.546-2.262-4.764,3.425-4.764,3.425
		S357.331,4.579,355.836,2.392"/>
	<path clip-path="url(#SVGID_2_)" fill="#FFFFFF" d="M351.075,13.007c0,0,2.56,5.844,4.372,3.914
		C357.322,14.923,351.075,13.007,351.075,13.007"/>
	<path clip-path="url(#SVGID_2_)" fill="#FFFFFF" d="M343.007,2.392c-1.546-2.262-4.764,3.425-4.764,3.425
		S344.502,4.579,343.007,2.392"/>
	<path clip-path="url(#SVGID_2_)" fill="#FFFFFF" d="M338.246,13.007c0,0,2.56,5.844,4.372,3.914
		C344.493,14.923,338.246,13.007,338.246,13.007"/>
	<path clip-path="url(#SVGID_2_)" fill="#FFFFFF" d="M329.758,2.392c-1.547-2.262-4.764,3.425-4.764,3.425
		S331.252,4.579,329.758,2.392"/>
	<path clip-path="url(#SVGID_2_)" fill="#FFFFFF" d="M329.368,16.921c1.875-1.998-4.371-3.914-4.371-3.914
		S327.557,18.852,329.368,16.921"/>
	<path clip-path="url(#SVGID_2_)" fill="#FFFFFF" d="M115.466,18.982c-3.563-0.529-0.953,7.655-0.953,7.655
		S118.91,19.495,115.466,18.982"/>
	<path clip-path="url(#SVGID_2_)" fill="#FFFFFF" d="M109.83,33.359c-3.038-0.357-0.611,6.521-0.611,6.521
		S112.766,33.704,109.83,33.359"/>
	<polygon clip-path="url(#SVGID_2_)" fill="#FFFFFF" points="105.303,51.52 103.66,50.379 101.675,53.239 99.682,50.289 
		98.025,51.408 101.653,56.778 	"/>
	<polygon clip-path="url(#SVGID_2_)" fill="#FFFFFF" points="105.891,58.433 104.318,57.199 101.673,60.567 99.025,57.099 
		97.435,58.312 101.652,63.834 	"/>
	<polygon clip-path="url(#SVGID_2_)" fill="#FFFFFF" points="241.786,69.902 236.978,63.794 235.405,65.03 241.677,72.996 
		248.414,65.58 246.933,64.234 	"/>
	<polygon clip-path="url(#SVGID_2_)" fill="#FFFFFF" points="241.688,63.14 247.758,56.46 246.277,55.115 241.798,60.046 
		237.613,54.73 236.042,55.966 	"/>
	<polygon clip-path="url(#SVGID_2_)" fill="#FFFFFF" points="246.75,47.118 245.27,45.773 241.816,49.576 238.587,45.473 
		237.015,46.709 241.707,52.67 	"/>
	<polygon clip-path="url(#SVGID_2_)" fill="#FFFFFF" points="241.221,89.714 236.413,83.606 234.841,84.842 241.111,92.808 
		247.85,85.392 246.369,84.046 	"/>
	<polygon clip-path="url(#SVGID_2_)" fill="#FFFFFF" points="241.484,80.479 236.676,74.371 235.104,75.607 241.375,83.573 
		248.113,76.157 246.633,74.811 	"/>
	<polygon clip-path="url(#SVGID_2_)" fill="#FFFFFF" points="240.926,100.072 236.118,93.963 234.546,95.2 240.816,103.166 
		247.555,95.75 246.074,94.404 	"/>
	<polygon clip-path="url(#SVGID_2_)" fill="#FFFFFF" points="240.624,110.648 235.816,104.54 234.244,105.776 240.515,113.742 
		247.253,106.327 245.772,104.981 	"/>
	<polygon clip-path="url(#SVGID_2_)" fill="#FFFFFF" points="187.786,39.188 188.565,43.487 190.533,43.131 189.333,36.506 
		183.067,38.762 183.745,40.643 	"/>
	<polygon clip-path="url(#SVGID_2_)" fill="#FFFFFF" points="183.364,46.259 183.874,49.077 185.842,48.722 184.911,43.577 
		180.042,45.331 180.719,47.211 	"/>
	<polygon clip-path="url(#SVGID_2_)" fill="#FFFFFF" points="196.937,23.071 198.144,29.738 200.112,29.383 198.483,20.389 
		189.983,23.45 190.662,25.331 	"/>
	<polygon clip-path="url(#SVGID_2_)" fill="#FFFFFF" points="192.704,30.527 193.742,36.258 195.709,35.903 194.251,27.845 
		186.633,30.588 187.311,32.468 	"/>
	<polygon clip-path="url(#SVGID_2_)" fill="#FFFFFF" points="201.48,15.065 202.688,21.731 204.656,21.376 203.027,12.383 
		194.527,15.444 195.205,17.325 	"/>
	<polygon clip-path="url(#SVGID_2_)" fill="#FFFFFF" points="206.121,6.89 207.328,13.555 209.297,13.2 207.668,4.206 
		199.168,7.268 199.846,9.149 	"/>
	<polygon clip-path="url(#SVGID_2_)" fill="#FFFFFF" points="101.719,74.747 95.689,66.314 91.577,71.968 91.186,75.906 
		95.675,69.734 101.62,78.047 108.304,69.792 113.087,75.858 112.485,71.865 108.324,66.588 	"/>
	<polygon clip-path="url(#SVGID_2_)" fill="#FFFFFF" points="101.632,85.314 91.997,117.004 92.059,117.004 91.997,117.207 
		94.086,117.211 101.824,91.758 111.314,117.21 113.447,117.206 113.371,117.003 113.447,117.003 	"/>
	<polygon clip-path="url(#SVGID_2_)" fill="#FFFFFF" points="151.195,10.764 151.101,12.996 163.007,19.568 150.468,28.056 
		150.363,30.542 166.831,19.394 	"/>
	<path clip-path="url(#SVGID_2_)" fill="#FFFFFF" d="M156.95,41.456c0-0.867-0.702-1.569-1.569-1.569
		c-0.867,0-1.569,0.702-1.569,1.569s0.702,1.569,1.569,1.569C156.248,43.025,156.95,42.323,156.95,41.456"/>
	<polygon clip-path="url(#SVGID_2_)" fill="#FFFFFF" points="150.31,31.676 150.216,33.908 163.008,40.969 149.537,50.088 
		149.432,52.574 166.832,40.795 	"/>
	
		<rect x="105.723" y="79.638" transform="matrix(-0.1998 -0.9798 0.9798 -0.1998 50.3482 202.3932)" clip-path="url(#SVGID_2_)" fill="#FFFFFF" width="4.183" height="2"/>
	
		<rect x="107.415" y="90.02" transform="matrix(0.2468 0.9691 -0.9691 0.2468 171.0287 -38.009)" clip-path="url(#SVGID_2_)" fill="#FFFFFF" width="5.102" height="2"/>
	
		<rect x="109.857" y="100.694" transform="matrix(-0.1914 -0.9815 0.9815 -0.1914 34.2761 231.6267)" clip-path="url(#SVGID_2_)" fill="#FFFFFF" width="5.386" height="2"/>
	
		<rect x="92.419" y="90.536" transform="matrix(-0.9828 -0.1846 0.1846 -0.9828 168.0864 201.474)" clip-path="url(#SVGID_2_)" fill="#FFFFFF" width="2" height="4.757"/>
	
		<rect x="90.557" y="101.667" transform="matrix(0.9868 0.1621 -0.1621 0.9868 18.0216 -13.4667)" clip-path="url(#SVGID_2_)" fill="#FFFFFF" width="2.001" height="4.132"/>
	
		<rect x="94.241" y="79.151" transform="matrix(0.9915 0.1299 -0.1299 0.9915 11.385 -11.6812)" clip-path="url(#SVGID_2_)" fill="#FFFFFF" width="2" height="4.574"/>
	<path clip-path="url(#SVGID_2_)" fill="#FFFFFF" d="M168.267,14.692c0.947,1.498,1.841,2.914,1.806,4.452
		c-0.039,1.658-1.148,3.11-2.322,4.646c-1.203,1.574-2.446,3.202-2.73,5.262c-0.379,2.757,1.12,5.208,2.442,7.371
		c0.275,0.451,0.549,0.898,0.804,1.344c1.1,1.928,2.023,5.317,0.055,6.754l1.179,1.615c2.836-2.07,2.248-6.303,0.502-9.361
		c-0.265-0.463-0.549-0.928-0.834-1.395c-1.259-2.059-2.448-4.005-2.167-6.054c0.212-1.539,1.244-2.891,2.338-4.321
		c1.316-1.723,2.677-3.505,2.732-5.814c0.05-2.143-1.05-3.884-2.114-5.567c-0.723-1.145-1.406-2.227-1.715-3.386
		c-0.626-2.356,0.567-5.098,2.717-6.243l-0.941-1.766c-2.983,1.591-4.578,5.255-3.709,8.523
		C166.697,12.207,167.496,13.47,168.267,14.692"/>
	<path clip-path="url(#SVGID_2_)" fill="#FFFFFF" d="M235.288,20.523c0.544,0.3,1.098,0.465,1.646,0.49
		c0.048,0.002,0.097,0.003,0.146,0.003c0.688,0,1.41-0.221,2.095-0.644c1.271-0.785,2.058-1.977,2.558-3.228
		c0.237,0.332,0.489,0.654,0.772,0.952c1.097,1.154,2.769,2.085,4.456,2.085c0.698,0,1.398-0.159,2.063-0.528
		c0.684-0.38,1.278-0.964,1.77-1.737c0.864-1.358,1.148-2.932,0.781-4.315c-0.425-1.6-1.77-2.849-3.294-3.076
		c-0.85-0.261-1.948-0.107-2.717,0.392c-0.787,0.513-1.294,1.379-1.358,2.318c-0.053,0.794,0.22,1.548,0.748,2.071
		c0.635,0.625,1.592,0.831,2.383,0.504l-0.76-1.85c-0.03,0.009-0.144-0.004-0.218-0.077c-0.109-0.109-0.171-0.311-0.157-0.514
		c0.021-0.304,0.199-0.61,0.453-0.776c0.272-0.176,0.786-0.247,1.058-0.15l0.229,0.054c0.76,0.088,1.475,0.768,1.701,1.617
		c0.221,0.833,0.021,1.854-0.536,2.73c-0.311,0.488-0.665,0.846-1.054,1.061c-1.274,0.706-3.026-0.06-4.096-1.186
		c-0.688-0.724-1.181-1.564-1.511-2.461c0.003-0.023,0.008-0.048,0.01-0.071l-0.034-0.004c-0.914-2.562-0.497-5.586,0.666-7.801
		c1.561-2.974,4.273-5.022,6.768-6.382h-3.708c-2.118,1.579-3.761,3.415-4.831,5.452c-1.523,2.903-1.797,6.2-0.915,9.002
		c-0.215,1.344-0.779,3.291-2.276,4.216c-0.272,0.168-0.687,0.361-1.099,0.345c-0.238-0.011-0.498-0.093-0.773-0.245
		c-0.528-0.29-0.901-0.741-0.998-1.206c-0.086-0.412,0.092-0.878,0.396-1.039c0.114-0.064,0.297-0.063,0.448-0.005
		c0.105,0.041,0.187,0.107,0.209,0.171c0.022,0.061,0.013,0.12,0.003,0.137l1.717,1.025c0.321-0.539,0.383-1.226,0.162-1.839
		c-0.221-0.613-0.72-1.108-1.37-1.359c-0.693-0.269-1.479-0.231-2.106,0.103c-1.088,0.578-1.684,1.928-1.417,3.212
		C233.513,19.016,234.239,19.947,235.288,20.523"/>
	<path clip-path="url(#SVGID_2_)" fill="#FFFFFF" d="M172.208,72.558c-0.352-6.246-3.272-10.358-7.812-10.998
		c-2.859-0.406-5.632,0.102-7.423,1.351c-3.072,2.144-4.863,5.269-4.789,8.361c0.085,3.616,3.165,6.684,6.725,6.698h0.024
		c3.281,0,5.855-2.932,5.966-5.562c0.077-1.819-1.03-3.859-4.369-4.128l-0.16,1.994c1.19,0.096,2.595,0.528,2.531,2.05
		c-0.071,1.689-1.819,3.646-3.968,3.646h-0.015c-2.463-0.011-4.676-2.228-4.735-4.745c-0.068-2.85,1.988-5.316,3.935-6.673
		c1.632-1.139,4.169-1.269,5.999-1.011c5.219,0.735,5.984,7.174,6.094,9.13c0.246,4.368-0.712,8.725-2.771,12.597
		c-0.806,1.516-1.8,2.987-2.762,4.409c-0.137,0.201-0.273,0.412-0.41,0.616l-2.373-4.69l-1.784,0.902l2.897,5.728
		c-0.371,0.592-0.741,1.187-1.077,1.803c-0.319,0.584-0.605,1.186-0.878,1.794l-2.066-4.086l-1.785,0.902l2.874,5.682
		c-0.447,1.345-0.789,2.724-1.023,4.122l-3.247-3.361l-1.439,1.389l4.384,4.54c-0.135,1.841-0.09,3.693,0.137,5.524l-3.507-2.469
		l-1.152,1.635l5.148,3.624c0.31,1.346,0.714,2.669,1.228,3.951h2.181c-0.644-1.461-1.133-2.984-1.483-4.54l4.371-2.634
		l-1.032-1.713l-3.723,2.243c-0.244-1.763-0.302-3.55-0.182-5.325l5.874-2.037l-0.655-1.889l-4.986,1.729
		c0.197-1.284,0.498-2.551,0.888-3.789l6.647-1.828l-0.53-1.928l-5.258,1.446c0.295-0.688,0.612-1.367,0.971-2.025
		c0.331-0.608,0.695-1.208,1.07-1.803l6.656-1.831l-0.53-1.928l-4.454,1.225c0.961-1.422,1.948-2.891,2.776-4.448
		C171.437,82.012,172.475,77.292,172.208,72.558"/>
	<path clip-path="url(#SVGID_2_)" fill="#FFFFFF" d="M213.561,115.574l1.744-0.979c-1.408-2.507-4.559-3.8-7.317-3.011
		c-2.764,0.79-4.751,3.551-4.622,6.423l1.998-0.09c-0.087-1.939,1.307-3.876,3.174-4.41
		C210.4,112.977,212.609,113.879,213.561,115.574"/>
	<path clip-path="url(#SVGID_2_)" fill="#FFFFFF" d="M212.614,118.941c-2.765,0.79-4.752,3.552-4.622,6.424l1.998-0.09
		c-0.088-1.939,1.306-3.877,3.173-4.41c1.866-0.536,4.074,0.375,5.024,2.067l1.744-0.979
		C218.524,119.448,215.38,118.154,212.614,118.941"/>
	<path clip-path="url(#SVGID_2_)" fill="#FFFFFF" d="M208.791,106.98l1.537-1.279c-1.765-2.122-4.913-2.939-7.484-1.936
		c-2.573,1-4.344,3.727-4.211,6.483l1.998-0.096c-0.091-1.893,1.172-3.838,2.938-4.524
		C205.333,104.943,207.58,105.524,208.791,106.98"/>
	<polygon clip-path="url(#SVGID_2_)" fill="#FFFFFF" points="194.626,76.846 183.237,90.046 184.268,91.914 195.767,78.584 	"/>
	<polygon clip-path="url(#SVGID_2_)" fill="#FFFFFF" points="280.436,85.84 268.021,100.229 269.034,102.116 281.587,87.567 	"/>
	<polygon clip-path="url(#SVGID_2_)" fill="#FFFFFF" points="203.025,89.618 188.822,100.139 189.798,101.905 204.125,91.293 	"/>
	<polygon clip-path="url(#SVGID_2_)" fill="#FFFFFF" points="269.213,68.898 256.361,78.417 257.317,80.199 270.324,70.565 	"/>
	<polygon clip-path="url(#SVGID_2_)" fill="#FFFFFF" points="190.574,70.654 176.429,77.696 177.396,79.45 191.679,72.338 	"/>
	<polygon clip-path="url(#SVGID_2_)" fill="#FFFFFF" points="275.123,77.77 260.044,85.277 260.991,87.041 276.24,79.448 	"/>
	<path clip-path="url(#SVGID_2_)" fill="#FFFFFF" d="M286.843,4.629c-2.296,0.095-4.401-0.938-5.673-2.75l-1.637,1.148
		c1.596,2.276,4.204,3.607,7.031,3.607c0.118,0,0.237-0.002,0.356-0.007c2.912-0.114,5.563-1.556,7.305-2.629l-1.051-1.703
		C290.713,3.814,288.701,4.557,286.843,4.629"/>
	<path clip-path="url(#SVGID_2_)" fill="#FFFFFF" d="M280.99,7.399l-1.514,1.309c1.711,1.978,4.074,3.005,6.413,3.005
		c1.746,0,3.479-0.572,4.917-1.747l-1.266-1.548C287.021,10.478,283.265,10.031,280.99,7.399"/>
	<path clip-path="url(#SVGID_2_)" fill="#FFFFFF" d="M313.521,21.744c1.468,0.375,2.858,0.991,4.331,1.645
		c1.835,0.813,3.733,1.654,5.804,1.993c2.664,0.434,5.317-0.006,7.885-0.431c0.895-0.149,1.77-0.291,2.633-0.4v-2.01
		c-0.995,0.117-1.983,0.275-2.96,0.436c-2.52,0.418-4.897,0.813-7.235,0.43c-1.817-0.297-3.517-1.05-5.315-1.848
		c-1.483-0.657-3.017-1.336-4.646-1.752c-1.349-0.346-2.769-0.403-4.108-0.209l-0.086,2.042
		C311.007,21.413,312.313,21.435,313.521,21.744"/>
	<path clip-path="url(#SVGID_2_)" fill="#FFFFFF" d="M316.87,38.008c2.237-0.903,4.613-1.664,6.81-1.107
		c0.845,0.213,1.651,0.62,2.506,1.05c0.403,0.203,0.808,0.407,1.218,0.591c2.115,0.955,4.455,1.421,6.77,1.405V37.95
		c-2.042,0.029-4.089-0.392-5.947-1.23c-0.384-0.174-0.762-0.364-1.14-0.555c-0.913-0.46-1.857-0.936-2.916-1.204
		c-2.762-0.699-5.62,0.211-8.05,1.193l-0.807,0.331c-2.09,0.86-4.044,1.644-6.126,1.667c-0.02,0-0.04-0.005-0.061-0.005
		l-0.084,1.999c0.047,0.001,0.095,0.006,0.14,0.006h0.023c2.452,0,4.697-0.924,6.868-1.818L316.87,38.008z"/>
	<path clip-path="url(#SVGID_2_)" fill="#FFFFFF" d="M314.587,31.658c1.129-0.106,2.258-0.287,3.35-0.461
		c2.221-0.354,4.319-0.69,6.412-0.45c1.329,0.153,2.62,0.534,3.987,0.938c1.46,0.432,2.97,0.878,4.555,1.031
		c0.282,0.027,0.567,0.041,0.854,0.041c0.143,0,0.285-0.008,0.428-0.015V30.74c-0.367,0.021-0.733,0.019-1.091-0.015
		c-1.394-0.134-2.746-0.534-4.18-0.958c-1.389-0.41-2.824-0.835-4.325-1.006c-2.363-0.273-4.698,0.1-6.956,0.46
		c-1.061,0.17-2.156,0.345-3.222,0.446c-1.056,0.098-3.025,0.164-4.9-0.377l-0.086,2.06
		C311.322,31.813,313.242,31.782,314.587,31.658"/>
	<path clip-path="url(#SVGID_2_)" fill="#FFFFFF" d="M383.943,107.74c-0.155,0.33-0.388,0.525-0.729,0.615
		c-0.662,0.172-1.669-0.091-2.45-0.644c-0.316-0.224-0.63-0.472-0.944-0.72c-1.23-0.972-2.595-2.055-4.367-1.961
		c-1.5,0.097-2.661,1.075-3.686,1.938c-0.727,0.613-1.413,1.192-2.131,1.426c-1.434,0.468-3.021-0.423-4.7-1.366
		c-1.919-1.077-4.095-2.297-6.385-1.473c-1.108,0.398-1.96,1.188-2.784,1.95c-0.761,0.706-1.481,1.373-2.262,1.576
		c-1.194,0.308-2.412-0.44-3.823-1.307c-1.373-0.845-2.793-1.717-4.456-1.731h-0.042c-1.809,0-3.334,1.01-4.81,1.986
		c-1.5,0.991-2.793,1.847-4.082,1.512c-0.766-0.2-1.483-0.832-2.243-1.502c-0.929-0.818-1.89-1.665-3.164-1.959l-0.449,1.949
		c0.781,0.18,1.515,0.826,2.291,1.51c0.902,0.795,1.834,1.617,3.06,1.938c0.369,0.097,0.73,0.14,1.084,0.14
		c1.707,0,3.233-1.01,4.607-1.919c1.285-0.851,2.499-1.654,3.707-1.654h0.023c1.107,0.01,2.233,0.702,3.427,1.435
		c1.572,0.967,3.352,2.064,5.372,1.539c1.269-0.33,2.209-1.201,3.119-2.044c0.708-0.656,1.376-1.275,2.101-1.535
		c1.44-0.519,3.035,0.384,4.73,1.334c1.888,1.062,4.031,2.26,6.298,1.524c1.09-0.355,1.96-1.089,2.801-1.798
		c0.866-0.729,1.683-1.419,2.525-1.473c0.967-0.091,1.958,0.713,2.999,1.534c0.343,0.271,0.684,0.539,1.027,0.782
		c1.01,0.715,2.619,1.334,4.113,0.946c0.918-0.241,1.62-0.827,2.03-1.695L383.943,107.74z"/>
	
		<rect x="317.297" y="8.294" transform="matrix(0.9994 0.0336 -0.0336 0.9994 0.5059 -11.4792)" clip-path="url(#SVGID_2_)" fill="#FFFFFF" width="48.158" height="1.999"/>
	<polygon clip-path="url(#SVGID_2_)" fill="#FFFFFF" points="374.447,17.874 374.436,18.082 379.754,10.613 375.322,2.559 
		375.325,2.5 375.306,2.528 375.288,2.496 375.284,2.559 369.986,10.063 374.436,18.071 	"/>
	<path clip-path="url(#SVGID_2_)" fill="#FFFFFF" d="M330.026,50.572l-0.955,0.296c-4.417,1.364-7.898,5.555-9.089,10.935
		c-1.072,4.861-0.274,9.851,0.558,14.147l0.189,0.981l1.964-0.38l-0.19-0.982c-0.794-4.099-1.558-8.848-0.567-13.334
		c1.019-4.609,4.051-8.321,7.726-9.457l0.956-0.295L330.026,50.572z"/>
	<path clip-path="url(#SVGID_2_)" fill="#FFFFFF" d="M328.109,46.953l0.995-0.105l-0.212-1.99l-0.994,0.107
		c-6.95,0.739-12.016,6.819-13.952,12.516c-2.117,6.225-1.646,13.026-1.037,18.913l0.104,0.995l1.989-0.207l-0.103-0.993
		c-0.587-5.677-1.047-12.221,0.939-18.063C317.572,53.03,322.038,47.599,328.109,46.953"/>
	<path clip-path="url(#SVGID_2_)" fill="#FFFFFF" d="M374.616,97.719c-3.897,0-7.094-2.471-7.367-5.59l-2.205,0.242
		c0.05,0.245,0.083,0.495,0.083,0.752c0,2.625-2.739,4.761-6.109,4.761c-3.119,0-5.696-1.833-6.062-4.188l-2.197,0.24
		c0.194,0.413,0.305,0.855,0.305,1.316c0,2.219-2.439,4.024-5.438,4.024s-5.437-1.806-5.437-4.024c0-0.055,0.009-0.105,0.012-0.158
		l-2.008,0.22c0.042,3.294,3.358,5.963,7.433,5.963c3.228,0,5.973-1.676,7-4.008c1.485,1.588,3.796,2.614,6.392,2.614
		c3.368,0,6.261-1.721,7.485-4.163c1.63,2.387,4.652,3.998,8.113,3.998c5.18,0,9.395-3.599,9.395-8.021
		c0-0.475-0.058-0.938-0.15-1.39l-1.992,0.219c0.093,0.379,0.143,0.771,0.143,1.171C382.011,95.018,378.693,97.719,374.616,97.719"
		/>
	<polygon clip-path="url(#SVGID_2_)" fill="#FFFFFF" points="356.4,54.654 349.294,49.979 342.817,54.741 336.933,51.106 
		335.882,52.807 342.915,57.151 349.357,52.415 356.688,57.238 361.755,51.984 367.989,57.087 373.173,52.191 373.173,49.441 
		367.896,54.425 361.594,49.269 	"/>
</g>
</svg>
