<?xml version="1.0" encoding="utf-8"?>
<!-- Generator: Adobe Illustrator 16.0.0, SVG Export Plug-In . SVG Version: 6.00 Build 0)  -->
<!DOCTYPE svg PUBLIC "-//W3C//DTD SVG 1.1//EN" "http://www.w3.org/Graphics/SVG/1.1/DTD/svg11.dtd">
<svg version="1.1" id="Layer_1" xmlns="http://www.w3.org/2000/svg" xmlns:xlink="http://www.w3.org/1999/xlink" x="0px" y="0px"
	 width="499.14px" height="266.805px" viewBox="0 0 499.14 266.805" enable-background="new 0 0 499.14 266.805"
	 xml:space="preserve">
<path fill="#e7cbbc" d="M476.704,206.705c2.279-15.629,6.924-30.783,13.465-45.158c7.516-16.523,10.438-37.968,8.275-53.439
	c-3.412-24.4-16.523-45.613-38.689-56.965c-23.852-12.214-47.771-5.339-73.117-4.174c-23.854,1.095-42.674-10.492-62.93-21.566
	c-37.162-20.316-72.699-18.211-112.501-7.807c-15.816,4.133-29.02,5.842-44.65,0.691c-15.137-4.989-30.088-10.788-45.365-15.161
	C81.804-8.147,40.439,11.339,44.06,57.254c1.438,18.216,6.254,31.376-2.672,48.387c-10.424,19.863-30.961,34.187-38.291,55.833
	c-17.004,50.215,39.719,77.813,79.688,82.611c32.965,3.957,62.385-4.17,94.064-12.045c29.578-7.354,59.543-8.305,89.238-1.133
	c33.666,8.133,62.332,27.164,97.021,32.984c23.197,3.895,48.25,5.16,70.145-4.447c20.49-8.988,39.412-26.332,42.943-49.342
	C476.368,208.98,476.538,207.846,476.704,206.705"/>
</svg>
